<?xml version="1.0" standalone="no"?>
<!DOCTYPE svg PUBLIC "-//W3C//DTD SVG 20010904//EN"
 "http://www.w3.org/TR/2001/REC-SVG-20010904/DTD/svg10.dtd">
<svg version="1.0" xmlns="http://www.w3.org/2000/svg"
 width="720.000000pt" height="720.000000pt" viewBox="0 0 720.000000 720.000000"
 preserveAspectRatio="xMidYMid meet">

<g transform="translate(0.000000,720.000000) scale(0.100000,-0.100000)"
fill="#000000" stroke="none">
<path d="M3489 6356 c-14 -7 -44 -25 -65 -40 -35 -24 -47 -26 -136 -26 -53 0
-99 -4 -103 -9 -3 -5 -19 -12 -35 -16 -17 -4 -30 -11 -30 -16 0 -5 -13 -9 -30
-9 -16 0 -30 -4 -30 -10 0 -6 -28 -10 -64 -10 -36 0 -67 -4 -70 -9 -4 -5 -24
-12 -46 -16 -22 -4 -40 -11 -40 -16 0 -5 -9 -9 -19 -9 -11 0 -22 -4 -25 -9 -3
-5 -17 -12 -31 -15 -33 -8 -45 -19 -198 -166 -169 -163 -148 -146 -257 -202
-36 -18 -67 -35 -70 -38 -3 -3 -22 -14 -42 -25 -21 -11 -38 -23 -38 -27 0 -5
-7 -8 -15 -8 -8 0 -15 -4 -15 -10 0 -5 -7 -10 -15 -10 -8 0 -15 -3 -15 -7 0
-5 -18 -26 -40 -48 -21 -22 -39 -48 -40 -57 0 -10 -4 -18 -10 -18 -5 0 -10 -6
-10 -12 0 -7 -14 -40 -30 -73 -16 -33 -30 -66 -30 -72 0 -7 -4 -13 -10 -13 -5
0 -10 -9 -10 -20 0 -11 -4 -20 -9 -20 -5 0 -17 -17 -26 -37 -10 -21 -31 -50
-46 -65 -15 -15 -31 -43 -35 -63 -3 -19 -10 -35 -15 -35 -5 0 -9 -8 -9 -19 0
-10 -7 -24 -15 -31 -8 -7 -15 -24 -15 -39 0 -15 -4 -31 -9 -36 -5 -6 -11 -28
-14 -50 -12 -89 -32 -185 -39 -185 -4 0 -8 -24 -8 -53 0 -29 -4 -57 -10 -63
-5 -5 -13 -45 -16 -87 -4 -42 -11 -77 -15 -77 -5 0 -9 -17 -9 -38 0 -21 -6
-44 -12 -50 -20 -20 -18 -709 1 -745 11 -21 12 -32 3 -52 -14 -30 -16 -65 -4
-65 10 0 12 -13 12 -102 0 -40 4 -68 10 -68 6 0 10 -32 10 -80 0 -47 -4 -80
-10 -80 -5 0 -10 -13 -10 -29 0 -16 -3 -31 -7 -33 -5 -1 -19 -24 -33 -51 -14
-26 -42 -63 -62 -83 -21 -20 -41 -48 -44 -62 -3 -15 -10 -37 -15 -50 -5 -13
-9 -58 -9 -102 0 -62 5 -87 23 -120 28 -54 110 -127 179 -161 29 -15 77 -38
106 -53 30 -14 62 -26 73 -26 11 0 27 -4 37 -9 57 -28 91 -40 122 -45 19 -2
67 -12 105 -21 39 -9 89 -19 113 -22 23 -3 42 -9 42 -14 0 -5 19 -9 43 -9 23
0 51 -7 61 -15 14 -11 47 -15 118 -15 l98 0 0 -29 c0 -17 -4 -33 -10 -36 -5
-3 -10 -15 -10 -26 0 -37 -65 -99 -102 -99 -16 0 -28 -4 -28 -10 0 -14 -33
-13 -48 2 -9 9 -12 9 -12 0 0 -7 -11 -12 -25 -12 -14 0 -25 5 -25 10 0 15 -30
12 -30 -2 -1 -16 -30 -51 -50 -61 -15 -8 -43 -24 -69 -41 -8 -5 -26 -10 -40
-12 -14 -1 -84 -6 -156 -12 -78 -6 -131 -14 -133 -21 -2 -6 -17 -11 -33 -11
-16 0 -29 -4 -29 -10 0 -5 -6 -10 -12 -10 -18 0 -138 -83 -138 -95 0 -6 -11
-22 -25 -37 -14 -15 -25 -32 -25 -38 0 -5 -4 -10 -10 -10 -5 0 -10 -8 -10 -19
0 -10 -7 -24 -15 -31 -8 -7 -15 -21 -15 -31 0 -11 -4 -19 -10 -19 -5 0 -10 -9
-10 -20 0 -11 -7 -23 -15 -26 -8 -4 -15 -13 -15 -21 0 -7 -10 -24 -23 -37 -41
-42 -77 -90 -77 -103 0 -7 -4 -13 -10 -13 -5 0 -10 -7 -10 -16 0 -8 -17 -31
-37 -50 -21 -19 -48 -44 -61 -55 -12 -12 -22 -30 -22 -40 0 -11 -7 -22 -15
-25 -8 -4 -15 -12 -15 -20 0 -8 -4 -14 -10 -14 -5 0 -10 -20 -10 -45 0 -25 -4
-45 -10 -45 -20 0 -39 -66 -38 -134 0 -38 -4 -71 -9 -75 -6 -3 -13 -23 -17
-43 -4 -21 -11 -38 -16 -38 -6 0 -10 -4 -10 -9 0 -12 -103 -195 -112 -199 -4
-2 -8 -17 -8 -33 0 -16 -4 -29 -9 -29 -5 0 -12 -22 -16 -50 -4 -27 -11 -52
-16 -56 -5 -3 -9 -25 -9 -49 0 -24 -4 -47 -10 -50 -5 -3 -10 -21 -10 -38 0
-34 -23 -114 -46 -159 -8 -14 -14 -37 -14 -51 0 -14 -4 -37 -10 -51 -9 -24 -7
-26 15 -26 13 0 29 8 34 19 19 34 71 201 71 226 0 14 5 25 10 25 6 0 10 15 10
33 0 31 25 150 40 192 14 38 64 140 87 177 13 21 23 45 23 53 0 9 4 13 10 10
6 -3 10 1 10 9 0 8 6 30 14 48 22 50 45 136 57 207 16 102 58 175 203 351 95
115 108 135 100 164 -4 16 -2 26 5 26 6 0 11 -6 12 -12 0 -7 4 -3 9 9 5 13 15
23 22 23 7 0 28 23 46 50 19 27 52 64 75 82 22 18 45 39 51 47 27 35 79 81 90
81 7 0 29 10 48 23 32 23 42 24 232 25 172 0 204 3 235 19 20 10 38 21 39 26
2 4 12 7 23 7 10 0 19 3 19 8 0 4 19 15 43 26 23 10 50 22 59 27 41 21 78 -4
133 -91 15 -24 33 -50 39 -57 31 -35 36 -44 36 -61 0 -26 15 -54 73 -134 26
-37 47 -72 47 -78 0 -15 32 -74 43 -78 4 -2 7 -8 7 -13 0 -8 20 -30 106 -121
33 -34 46 -27 42 20 -2 30 1 37 17 41 27 5 35 19 35 64 0 24 9 52 25 75 16 23
25 51 25 74 0 20 5 40 10 43 6 3 10 25 10 48 0 24 11 64 25 92 14 28 25 57 25
66 0 9 3 19 7 22 3 4 7 31 8 62 1 35 7 61 18 73 9 10 17 31 17 45 0 15 5 27
10 27 6 0 10 24 10 54 0 66 16 86 71 86 70 0 103 -57 54 -94 -24 -18 -35 -56
-16 -56 5 0 11 -8 13 -18 2 -11 -14 -31 -45 -57 -30 -24 -51 -50 -54 -67 -3
-16 -9 -28 -14 -28 -12 0 -11 -47 1 -55 6 -3 13 2 17 12 7 19 16 29 93 111 52
55 67 62 76 37 4 -8 26 -20 50 -26 56 -14 84 -44 100 -105 13 -52 10 -74 -12
-74 -8 0 -14 -7 -14 -16 0 -11 6 -15 19 -11 18 4 20 -3 26 -82 3 -47 10 -116
16 -153 5 -37 9 -104 9 -150 1 -53 6 -92 15 -108 8 -14 14 -35 15 -47 0 -13 5
-23 10 -23 6 0 10 -24 10 -53 0 -57 19 -87 53 -87 13 0 17 9 17 34 0 19 4 37
9 41 5 3 12 19 16 35 4 17 11 30 16 30 5 0 9 9 9 20 0 12 11 31 25 44 14 13
25 27 25 32 0 5 11 18 25 28 14 10 25 28 25 40 0 25 44 93 77 119 13 10 23 29
23 43 0 13 5 24 10 24 6 0 10 7 10 17 0 9 18 33 40 54 22 21 40 45 40 54 0 8
5 15 10 15 6 0 10 18 10 40 0 35 3 40 24 40 13 0 29 -7 36 -15 7 -8 23 -15 36
-15 12 0 26 -4 29 -10 3 -5 19 -10 34 -10 15 0 47 -6 72 -14 24 -7 63 -19 87
-26 23 -7 42 -16 42 -19 0 -4 15 -15 32 -26 31 -18 74 -53 122 -101 53 -52 96
-126 96 -164 0 -10 7 -23 15 -30 8 -7 15 -22 15 -34 0 -12 5 -27 12 -34 7 -7
11 -40 11 -79 0 -36 5 -80 11 -97 13 -33 13 -39 1 -191 -6 -79 -4 -116 10
-175 25 -111 34 -157 46 -235 6 -38 15 -77 20 -87 12 -23 12 -365 -1 -373 -5
-3 -10 -19 -10 -36 0 -22 5 -29 19 -29 31 0 51 87 51 225 0 66 -5 125 -11 137
-6 11 -13 55 -15 97 -3 41 -9 80 -14 85 -6 6 -10 30 -10 56 0 25 -7 63 -14 85
-12 32 -14 84 -9 255 5 215 5 215 30 237 l26 21 -22 36 c-13 20 -27 36 -32 36
-5 0 -9 9 -9 20 0 11 -4 20 -10 20 -5 0 -10 10 -10 23 0 12 -7 35 -15 51 -8
15 -15 34 -15 41 0 27 -47 102 -92 147 -27 26 -48 50 -48 54 0 14 -46 54 -63
54 -10 0 -15 4 -12 10 3 6 -4 10 -17 11 -13 0 -36 9 -53 20 -16 11 -38 22 -47
25 -10 4 -15 10 -12 15 3 5 -6 9 -19 9 -14 0 -30 7 -37 15 -7 8 -23 15 -36 15
-13 0 -43 4 -66 10 -24 5 -54 12 -68 15 -41 8 -80 48 -80 83 0 17 -6 32 -15
36 -15 5 -20 42 -9 70 6 16 44 23 44 8 0 -19 82 -41 200 -51 47 -5 110 -14
140 -21 89 -19 343 1 374 31 6 5 22 9 37 9 15 0 29 5 31 10 2 6 13 12 25 13
13 0 25 7 27 14 3 7 15 13 26 13 11 0 20 5 20 10 0 6 7 10 15 10 9 0 18 7 21
15 4 8 12 15 19 15 18 0 209 99 213 111 2 5 9 9 15 9 17 0 207 171 207 186 0
3 6 12 13 19 29 33 37 45 37 55 0 5 5 10 10 10 6 0 10 28 10 65 0 37 -4 65
-10 65 -5 0 -10 9 -10 21 0 11 -7 27 -15 35 -8 9 -15 24 -15 35 0 10 -4 19
-10 19 -5 0 -10 12 -10 26 0 14 -7 32 -15 40 -8 9 -15 24 -15 34 0 10 -4 22
-10 25 -5 3 -10 16 -10 29 0 12 -4 26 -10 32 -5 5 -11 22 -12 36 -1 15 -6 25
-10 22 -4 -2 -14 11 -23 30 -9 19 -23 40 -31 47 -8 6 -14 20 -14 29 0 10 -5
20 -12 22 -14 5 -12 92 2 96 6 2 10 12 10 22 0 10 4 21 9 24 5 3 12 21 15 40
9 45 35 98 58 114 10 7 18 19 18 27 0 8 11 25 25 39 14 14 25 30 25 36 0 5 5
10 10 10 6 0 10 5 10 11 0 6 6 17 13 24 31 35 37 45 37 60 0 8 4 15 10 15 5 0
12 11 16 25 3 14 9 25 13 25 15 0 34 151 27 223 -4 39 -10 100 -13 135 -3 34
-9 62 -14 62 -5 0 -9 17 -9 38 -1 20 -7 48 -15 62 -8 14 -14 40 -15 58 0 17
-4 32 -10 32 -5 0 -10 14 -10 30 0 18 -6 33 -15 36 -8 4 -15 14 -15 24 0 11
-4 22 -10 25 -5 3 -10 19 -10 36 0 16 -4 29 -10 29 -5 0 -10 10 -10 23 0 13
-7 32 -15 43 -8 10 -15 29 -15 41 0 12 -4 25 -10 28 -5 3 -10 14 -10 23 0 9
-7 30 -15 46 -8 15 -15 37 -15 47 0 11 -4 19 -10 19 -5 0 -10 10 -10 23 0 13
-7 32 -15 43 -8 10 -15 27 -15 37 0 9 -4 17 -10 17 -14 0 -13 33 2 48 9 9 9
21 0 50 -7 22 -12 64 -12 94 0 32 -6 62 -15 74 -8 10 -15 27 -15 37 0 9 -4 17
-10 17 -5 0 -10 9 -10 20 0 11 -4 20 -10 20 -5 0 -12 11 -16 25 -3 14 -10 25
-15 25 -5 0 -9 7 -9 16 0 8 -6 21 -12 28 -7 7 -29 32 -48 56 -19 24 -41 49
-47 56 -7 7 -13 15 -13 18 0 2 -12 17 -27 33 -41 43 -117 134 -122 147 -2 6
-11 17 -19 26 -33 32 -99 147 -112 192 -7 26 -19 53 -26 59 -8 6 -14 24 -14
40 0 16 -3 29 -8 29 -4 0 -12 10 -17 23 -7 14 -22 24 -45 28 -19 4 -30 7 -25
8 11 1 -28 26 -57 37 -10 3 -18 10 -18 15 0 5 -4 9 -9 9 -12 0 -105 61 -109
72 -2 4 -10 8 -18 8 -8 0 -14 5 -14 10 0 6 -5 10 -10 10 -6 0 -18 6 -26 13 -8
6 -20 17 -27 22 -18 15 -117 61 -158 74 -19 6 -51 11 -71 11 -20 0 -51 6 -70
14 -41 18 -277 15 -321 -3 -40 -16 -138 -13 -161 4 -11 8 -30 15 -43 15 -13 0
-23 5 -23 10 0 6 -11 10 -24 10 -13 0 -37 7 -52 15 -36 18 -52 19 -85 1z
m-252 -152 c-3 -3 -12 -4 -19 -1 -8 3 -5 6 6 6 11 1 17 -2 13 -5z m153 -916
c0 -15 4 -28 9 -28 5 0 10 -38 10 -85 1 -47 8 -104 16 -127 8 -24 15 -60 15
-80 0 -21 5 -38 10 -38 6 0 10 -6 10 -14 0 -7 7 -19 15 -26 8 -7 15 -25 15
-41 0 -16 5 -29 10 -29 6 0 10 -15 10 -33 0 -18 11 -57 25 -85 14 -29 25 -56
25 -61 0 -5 7 -22 15 -37 8 -16 15 -41 15 -56 0 -16 5 -28 10 -28 6 0 10 -11
10 -25 0 -14 4 -25 9 -25 5 0 11 -13 14 -30 4 -16 28 -51 54 -78 58 -60 93
-100 93 -107 0 -3 9 -16 20 -28 12 -12 23 -32 26 -44 8 -29 15 -29 33 -1 19
30 25 193 10 265 -19 94 -22 130 -10 137 6 4 14 -1 17 -11 10 -31 29 -68 42
-81 6 -7 12 -19 12 -26 0 -7 8 -21 18 -32 10 -10 21 -26 25 -34 13 -27 31 -52
74 -99 24 -25 43 -49 43 -53 0 -5 6 -8 13 -8 45 0 86 -47 57 -65 -5 -3 -10
-19 -10 -36 0 -16 5 -29 10 -29 10 0 14 15 11 34 -1 5 3 12 8 16 6 3 12 19 13
36 1 16 11 37 22 46 16 14 18 18 6 18 -16 0 -33 36 -45 98 -5 26 -3 32 11 32
24 0 114 -96 114 -122 0 -5 -15 -8 -32 -8 l-33 0 25 -20 c14 -11 37 -20 52
-20 15 0 33 -6 40 -14 7 -8 40 -42 72 -75 33 -34 54 -61 47 -61 -7 0 -10 -4
-7 -9 3 -5 -41 -16 -98 -25 -111 -17 -204 -9 -233 20 -8 8 -29 14 -47 14 -24
0 -36 -7 -49 -29 -22 -38 -22 -38 15 -46 29 -7 30 -9 14 -20 -10 -8 -16 -23
-14 -37 3 -22 7 -23 61 -20 52 4 57 2 57 -17 0 -12 -4 -21 -10 -21 -5 0 -10
-7 -10 -15 0 -22 51 -64 78 -65 12 0 22 -4 22 -9 0 -17 34 -22 42 -6 11 19 28
19 64 0 16 -8 48 -15 71 -15 23 0 43 -4 45 -9 3 -9 88 -13 241 -12 58 1 67 3
67 19 0 11 7 33 16 51 16 33 16 145 -1 184 -6 14 -2 17 23 17 17 0 33 -4 36
-9 11 -18 69 -21 94 -5 13 8 27 13 30 9 8 -8 3 -160 -7 -205 -4 -19 -6 -51 -3
-71 2 -21 -1 -40 -7 -43 -7 -4 -11 -41 -11 -92 0 -79 -6 -105 -37 -144 -10
-14 -14 -35 -29 -177 -3 -29 -10 -53 -15 -53 -5 0 -9 -7 -9 -15 0 -9 -17 -46
-38 -83 -21 -37 -46 -84 -55 -104 -10 -20 -22 -40 -27 -43 -6 -3 -10 -15 -10
-26 0 -10 -4 -19 -10 -19 -5 0 -10 -5 -10 -11 0 -7 -13 -26 -30 -43 -16 -17
-52 -55 -79 -83 -28 -30 -58 -53 -69 -53 -11 0 -22 -3 -24 -7 -1 -5 -19 -15
-38 -24 -19 -9 -59 -28 -88 -43 -30 -14 -62 -26 -72 -26 -11 0 -22 -4 -25 -10
-3 -5 -15 -10 -26 -10 -10 0 -19 -4 -19 -9 0 -9 -51 -28 -80 -30 -40 -3 -91
-14 -96 -22 -3 -5 -18 -9 -34 -9 -16 0 -35 -6 -42 -13 -28 -27 -92 -39 -178
-33 -190 13 -240 18 -240 25 0 5 -28 11 -62 15 -34 3 -67 11 -72 16 -6 6 -25
10 -42 10 -18 0 -36 5 -39 10 -3 6 -15 10 -25 10 -10 0 -25 7 -34 15 -8 8 -22
15 -30 15 -9 0 -16 5 -16 10 0 6 -6 10 -14 10 -7 0 -19 7 -26 15 -7 8 -23 15
-36 15 -12 0 -26 5 -29 10 -3 6 -15 10 -26 10 -10 0 -19 5 -19 10 0 6 -8 10
-19 10 -10 0 -24 7 -31 15 -7 8 -16 15 -21 15 -5 0 -27 11 -49 25 -22 14 -46
25 -55 25 -8 0 -15 5 -15 10 0 6 -9 10 -19 10 -24 0 -161 131 -161 154 0 9 -4
16 -9 16 -5 0 -12 11 -15 25 -4 14 -11 25 -16 25 -6 0 -10 6 -10 14 0 8 -3 16
-7 18 -5 2 -27 29 -50 60 -42 55 -50 79 -37 112 5 13 10 11 32 -9 27 -25 48
-24 38 2 -3 8 1 30 10 49 13 28 14 40 5 60 -6 14 -11 49 -11 79 l0 55 49 0
c27 0 61 4 74 9 14 6 56 13 94 16 37 4 70 11 71 16 2 5 12 9 23 9 10 0 19 4
19 10 0 5 11 12 25 16 14 3 25 10 25 15 0 5 16 9 35 9 22 0 44 8 58 21 35 33
84 52 122 47 l35 -4 0 43 c0 24 -4 43 -10 43 -5 0 -10 7 -10 16 0 9 5 12 11 8
8 -5 10 3 5 28 -9 50 8 67 74 70 54 3 55 4 58 36 3 32 3 32 -40 32 -24 0 -48
-4 -54 -8 -5 -5 -62 -17 -126 -27 -65 -11 -118 -22 -118 -26 0 -4 -35 -9 -77
-12 -43 -3 -114 -13 -158 -22 -99 -20 -171 -29 -189 -22 -12 5 -12 13 -4 41 6
20 15 36 20 36 4 0 8 23 8 50 0 28 4 58 9 68 23 42 41 86 41 101 0 9 15 22 33
30 17 8 43 23 56 33 13 10 32 18 43 18 18 0 80 37 86 53 2 4 12 7 23 7 10 0
19 5 19 10 0 6 11 10 24 10 13 0 29 7 36 15 7 8 25 15 41 15 16 0 29 5 29 10
0 6 7 10 16 10 8 0 22 7 30 15 9 8 24 15 35 15 12 0 19 7 19 19 0 31 -14 32
-53 6 -20 -14 -41 -25 -46 -25 -15 0 -85 -34 -89 -42 -2 -5 -19 -8 -38 -8 -19
0 -46 -7 -60 -16 -13 -9 -27 -14 -30 -11 -4 3 -2 39 4 81 7 54 17 84 36 109
14 18 29 49 32 68 4 19 10 39 14 44 5 6 8 38 7 71 0 55 5 73 51 163 29 55 52
107 52 116 0 8 5 15 10 15 6 0 10 24 10 53 0 51 2 55 35 73 19 10 35 22 35 27
0 8 14 43 44 107 6 14 17 29 23 33 7 4 13 15 13 22 0 8 5 15 10 15 6 0 10 6
10 13 0 8 11 19 24 27 13 7 27 22 30 33 5 20 6 20 26 2 11 -10 20 -31 20 -47z
m1268 -846 c2 -17 7 -32 13 -32 5 0 9 -11 9 -25 0 -17 -5 -25 -18 -25 -14 0
-20 12 -28 60 -9 53 -8 60 5 58 10 -2 17 -16 19 -36z m22 -112 c0 -5 11 -12
24 -16 17 -4 33 -23 52 -62 16 -32 39 -74 51 -94 30 -48 31 -82 3 -73 -11 4
-20 2 -20 -4 0 -7 -28 -11 -74 -11 -89 0 -100 9 -85 66 6 21 9 66 6 100 -7 75
-1 104 24 104 11 0 19 -4 19 -10z m-1863 -82 c-3 -7 -5 -2 -5 12 0 14 2 19 5
13 2 -7 2 -19 0 -25z m1297 -237 c3 -4 3 -11 0 -14 -8 -8 -34 3 -34 14 0 11
27 12 34 0z m-1406 -366 c1 -44 -1 -85 -6 -92 -4 -6 -21 -13 -37 -15 l-30 -3
-8 80 c-7 75 -7 81 14 98 12 10 32 17 43 15 19 -3 21 -11 24 -83z m-348 -225
c0 -5 -4 -10 -10 -10 -5 0 -10 5 -10 10 0 6 5 10 10 10 6 0 10 -4 10 -10z
m-33 -52 c-3 -7 -5 -2 -5 12 0 14 2 19 5 13 2 -7 2 -19 0 -25z m103 2 c0 -5 5
-10 10 -10 6 0 16 -5 23 -10 7 -6 22 -18 34 -28 17 -13 25 -33 32 -86 6 -38
15 -74 20 -79 6 -6 11 -30 11 -54 0 -24 5 -43 10 -43 6 0 10 -9 10 -19 0 -11
-4 -23 -10 -26 -5 -3 -10 -19 -10 -34 0 -34 -17 -41 -87 -34 -80 7 -116 33
-201 141 l-33 42 20 21 c14 15 28 20 46 17 33 -7 55 14 55 53 0 16 7 46 15 66
8 19 15 45 15 58 0 12 3 25 7 28 10 11 33 8 33 -3z m817 -770 c11 0 37 -11 57
-25 20 -14 46 -25 57 -25 19 0 29 -4 77 -29 12 -6 43 -14 67 -18 25 -3 48 -10
51 -14 3 -5 27 -9 54 -9 27 0 52 -5 55 -11 4 -6 23 -10 44 -9 66 3 71 1 71
-25 0 -14 -4 -25 -10 -25 -5 0 -10 -20 -10 -45 0 -65 -26 -125 -55 -125 -13 0
-25 -5 -27 -12 -3 -7 -25 -13 -54 -14 -74 -2 -74 -2 -86 -29 -7 -16 -19 -25
-34 -25 -18 0 -26 8 -35 38 -7 24 -21 44 -40 54 -18 10 -32 29 -35 45 -7 35
-62 63 -123 63 -34 0 -49 6 -73 30 -28 29 -29 32 -13 44 16 12 16 13 0 29 -9
9 -12 17 -6 17 6 0 11 11 11 25 0 14 -4 25 -10 25 -17 0 -11 67 7 85 15 16 18
16 28 1 7 -9 21 -16 32 -16z m2359 -67 c-11 -11 -17 4 -9 23 7 18 8 18 11 1 2
-10 1 -21 -2 -24z m-2856 -63 c0 -5 -2 -10 -4 -10 -3 0 -8 5 -11 10 -3 6 -1
10 4 10 6 0 11 -4 11 -10z m145 -11 c50 -31 69 -37 146 -45 41 -4 76 -10 79
-14 10 -15 102 -60 121 -60 11 0 41 -10 67 -21 44 -20 45 -22 27 -36 -11 -7
-29 -16 -41 -19 -17 -4 -24 -20 -38 -82 -17 -77 -20 -85 -50 -154 -9 -20 -16
-59 -16 -87 0 -35 -8 -64 -25 -95 -14 -25 -25 -58 -25 -75 0 -16 -4 -33 -10
-36 -5 -3 -10 -24 -10 -46 0 -21 -4 -39 -10 -39 -5 0 -10 -16 -10 -35 0 -19
-4 -35 -10 -35 -5 0 -17 -16 -26 -36 -15 -31 -15 -37 -3 -46 11 -7 11 -11 2
-15 -7 -2 -13 -16 -13 -29 0 -35 -30 -43 -49 -13 -9 13 -24 32 -33 41 -10 10
-18 23 -18 28 0 6 -3 10 -7 10 -11 0 -43 58 -43 76 0 15 -40 81 -77 127 -13
16 -23 35 -23 42 0 16 -151 245 -174 264 -25 21 -19 39 35 108 28 36 58 81 66
101 8 20 26 50 39 68 16 20 29 56 35 95 5 34 12 66 15 71 9 14 47 8 79 -13z
m-180 -86 c-3 -16 -16 -44 -28 -63 -21 -34 -22 -34 -25 -10 -2 13 1 26 7 28 6
2 11 16 11 31 0 31 7 41 28 41 10 0 12 -7 7 -27z m1315 -112 c5 -11 19 -22 29
-26 11 -3 22 -13 26 -23 12 -31 27 -125 32 -207 3 -44 9 -82 14 -85 5 -4 4
-19 -3 -38 -10 -26 -9 -34 4 -49 16 -17 16 -22 1 -68 -11 -30 -33 -65 -59 -91
-23 -24 -45 -56 -49 -73 -4 -17 -11 -31 -16 -31 -5 0 -9 -6 -9 -12 0 -7 -16
-29 -35 -48 -19 -19 -35 -40 -35 -48 0 -19 -30 -70 -57 -98 -13 -13 -23 -30
-23 -37 0 -8 -6 -17 -14 -20 -8 -3 -19 -22 -26 -42 -7 -21 -20 -45 -30 -55
-17 -17 -18 -14 -26 73 -4 51 -8 142 -10 202 -4 149 -32 353 -54 396 -6 10
-10 45 -10 78 0 34 -4 61 -10 61 -14 0 -12 33 3 49 10 11 10 14 0 18 -8 3 -13
23 -13 49 0 39 3 46 27 55 22 8 30 7 39 -5 15 -22 30 -20 56 6 16 16 40 24 83
29 41 4 72 14 99 33 46 31 52 32 66 7z m-420 -124 c0 -30 -10 -40 -26 -26 -10
8 -11 15 -1 30 16 26 27 24 27 -4z m-133 -59 c-3 -7 -5 -2 -5 12 0 14 2 19 5
13 2 -7 2 -19 0 -25z m141 -20 c11 -11 17 -68 7 -68 -13 0 -45 36 -45 51 0 29
18 37 38 17z"/>
<path d="M4035 3570 c-3 -5 -1 -28 5 -50 9 -33 15 -40 35 -40 22 0 25 5 25 33
0 46 -46 87 -65 57z"/>
<path d="M3795 2992 c-16 -2 -34 -8 -39 -13 -6 -5 -25 -9 -43 -9 -39 0 -41 -7
-9 -40 55 -58 60 -60 166 -60 103 0 146 11 155 40 3 10 14 25 25 35 11 10 20
26 20 35 0 16 -12 18 -122 17 -68 -1 -136 -3 -153 -5z m165 -55 l35 -2 -34
-17 c-37 -20 -139 -25 -169 -9 -9 5 -26 12 -37 16 -53 17 45 23 205 12z"/>
<path d="M3440 1927 c0 -19 -7 -40 -15 -47 -8 -7 -15 -22 -15 -33 0 -11 -15
-35 -34 -53 -19 -18 -31 -35 -28 -38 3 -3 -2 -6 -11 -6 -8 0 -19 -10 -23 -22
-3 -13 -15 -35 -25 -50 -11 -14 -19 -33 -19 -41 0 -8 -11 -31 -25 -51 -14 -20
-25 -45 -25 -56 0 -10 -4 -21 -9 -24 -5 -3 -12 -30 -16 -61 -3 -30 -11 -57
-16 -60 -5 -4 -9 -17 -9 -31 0 -13 -4 -24 -10 -24 -5 0 -10 -11 -10 -25 0 -14
4 -25 8 -25 10 0 32 45 32 65 0 8 6 15 13 15 9 0 14 16 16 47 1 26 6 50 10 53
5 3 10 14 12 24 2 11 10 21 17 24 14 4 17 -44 2 -53 -14 -8 11 -45 30 -45 9 0
25 -7 36 -15 29 -22 62 -18 105 13 53 38 67 73 46 118 -10 19 -17 44 -17 54 0
11 -4 20 -10 20 -5 0 -10 7 -10 16 0 14 -10 16 -60 12 -56 -4 -74 2 -50 17 6
3 10 14 10 25 0 10 22 40 49 68 56 57 104 169 85 199 -19 31 -34 27 -34 -10z
m-23 -403 c8 -22 -5 -61 -23 -68 -8 -3 -24 -1 -35 4 -26 14 -27 87 -1 93 21 5
51 -10 59 -29z"/>
<path d="M3578 1778 c-10 -10 -18 -22 -18 -28 0 -5 -4 -10 -10 -10 -5 0 -10
-9 -10 -21 0 -12 -6 -35 -14 -52 -8 -18 -16 -41 -19 -52 -3 -11 -8 -28 -12
-37 -5 -14 -2 -18 12 -18 22 0 39 30 48 87 7 42 35 103 47 103 10 0 10 38 1
43 -5 2 -16 -4 -25 -15z"/>
<path d="M5657 1379 c-21 -24 -18 -33 7 -23 9 3 16 15 16 25 0 24 -2 24 -23
-2z"/>
<path d="M3189 1305 c-1 -3 -2 -9 -3 -14 0 -5 -4 -13 -8 -17 -5 -4 -8 -26 -8
-50 0 -24 -5 -44 -12 -46 -6 -2 -13 -26 -15 -54 -9 -130 -9 -129 10 -132 15
-3 17 5 17 62 0 36 5 68 10 71 6 3 10 21 10 39 0 18 7 55 15 81 8 27 12 52 9
57 -6 9 -23 11 -25 3z"/>
<path d="M3453 1233 c-7 -15 -13 -32 -13 -39 0 -6 -7 -25 -15 -40 -8 -16 -15
-53 -15 -82 0 -29 -4 -60 -9 -70 -38 -72 -47 -122 -21 -122 14 0 40 30 40 46
0 8 5 14 10 14 6 0 10 13 10 29 0 17 5 33 10 36 6 3 10 18 10 33 0 15 9 60 20
101 11 41 20 85 20 98 0 32 -32 30 -47 -4z"/>
<path d="M5440 1200 c0 -5 5 -10 11 -10 5 0 7 5 4 10 -3 6 -8 10 -11 10 -2 0
-4 -4 -4 -10z"/>
<path d="M3396 787 c-4 -9 -5 -28 -2 -42 5 -18 2 -27 -9 -31 -9 -4 -15 -18
-15 -36 0 -21 4 -29 13 -25 11 4 12 -7 9 -49 -2 -30 0 -60 6 -66 5 -7 13 -41
17 -75 4 -35 11 -60 16 -57 5 3 9 -32 9 -80 0 -47 4 -86 9 -86 4 0 11 -35 15
-77 3 -42 11 -82 16 -87 6 -6 10 -25 10 -43 0 -26 4 -33 20 -33 13 0 20 7 20
20 0 11 -4 20 -10 20 -5 0 -10 15 -10 34 0 19 -4 37 -9 40 -5 3 -12 44 -16 92
-4 51 -12 87 -19 90 -8 3 -11 25 -8 69 3 44 1 65 -7 65 -7 0 -11 21 -11 54 0
35 -5 58 -15 66 -11 9 -15 41 -17 133 -2 77 -6 115 -12 104z"/>
<path d="M1946 739 c-25 -73 -35 -111 -41 -144 -4 -22 -13 -62 -20 -90 -18
-66 -25 -505 -9 -505 18 0 19 19 22 245 3 216 23 369 57 452 10 24 12 40 6 46
-7 7 -12 6 -15 -4z"/>
<path d="M4344 735 c-4 -8 -1 -21 4 -28 13 -15 32 -85 39 -142 3 -22 9 -44 14
-50 5 -5 9 -30 9 -56 0 -26 5 -60 11 -76 15 -36 38 -229 39 -315 l0 -68 33 0
c38 0 37 -19 11 230 -15 149 -23 194 -54 290 -23 71 -47 156 -55 198 -5 23
-12 32 -26 32 -11 0 -22 -7 -25 -15z"/>
<path d="M3199 553 c-41 -6 -59 -49 -59 -140 0 -43 -4 -85 -10 -93 -6 -9 -5
-19 3 -28 11 -14 14 -52 16 -214 1 -71 3 -78 21 -78 19 0 20 7 20 99 0 56 -4
103 -10 106 -10 6 -15 55 -6 55 3 0 21 -9 40 -21 30 -17 41 -19 66 -10 39 13
60 34 60 60 0 12 5 21 10 21 14 0 12 28 -4 70 -7 19 -19 50 -25 68 -9 20 -20
32 -32 32 -15 0 -19 7 -19 35 0 19 -4 35 -9 35 -5 0 -15 2 -23 3 -7 2 -25 2
-39 0z m54 -117 c9 -7 17 -21 17 -30 0 -9 5 -16 10 -16 18 0 11 -72 -7 -86
-15 -10 -21 -10 -35 3 -14 12 -18 32 -18 80 0 66 4 71 33 49z"/>
<path d="M6960 430 c0 -11 7 -20 15 -20 8 0 15 9 15 20 0 11 -7 20 -15 20 -8
0 -15 -9 -15 -20z"/>
<path d="M6142 278 c-14 -14 -16 -118 -2 -118 6 0 10 -7 10 -16 0 -8 5 -12 10
-9 6 3 10 0 10 -8 0 -10 14 -16 41 -19 58 -5 89 24 89 87 0 65 -31 95 -98 95
-26 0 -53 -5 -60 -12z"/>
<path d="M5470 189 c0 -12 8 -29 18 -38 26 -24 52 -68 52 -88 0 -12 -16 -26
-42 -38 l-43 -20 45 -3 c24 -2 81 -1 125 2 44 3 132 8 195 10 150 6 234 18
246 37 2 4 -7 16 -20 25 -20 12 -37 14 -73 9 -62 -9 -177 -9 -231 0 -38 6 -45
4 -68 -20 -14 -16 -36 -27 -50 -27 -30 0 -34 3 -37 33 -1 13 -18 50 -37 82
-26 42 -40 57 -57 57 -17 0 -23 -6 -23 -21z"/>
<path d="M6382 159 c-12 -5 -27 -20 -32 -34 -13 -35 -13 -35 14 -35 15 0 33
-11 45 -27 12 -14 23 -24 25 -22 2 2 6 28 8 58 3 46 0 54 -17 61 -11 4 -30 4
-43 -1z"/>
<path d="M6570 91 c-18 -5 -26 -15 -28 -35 -4 -34 24 -59 50 -45 12 6 25 6 37
-1 11 -5 43 -10 71 -10 44 0 51 3 48 18 -2 10 -14 18 -30 20 -15 2 -32 10 -38
18 -7 8 -18 14 -25 14 -8 0 -15 4 -17 9 -5 13 -40 20 -68 12z"/>
<path d="M5250 26 c0 -7 9 -16 20 -19 15 -4 20 0 20 14 0 12 -7 19 -20 19 -11
0 -20 -6 -20 -14z"/>
<path d="M5005 10 c-14 -6 -5 -9 35 -9 39 -1 51 2 40 9 -18 12 -48 12 -75 0z"/>
</g>
</svg>
